<?xml version="1.0" standalone="no"?>
<!DOCTYPE svg PUBLIC "-//W3C//DTD SVG 20010904//EN"
 "http://www.w3.org/TR/2001/REC-SVG-20010904/DTD/svg10.dtd">
<svg version="1.0" xmlns="http://www.w3.org/2000/svg"
 width="16.000000pt" height="16.000000pt" viewBox="0 0 16.000000 16.000000"
 preserveAspectRatio="xMidYMid meet">
<metadata>
Created by potrace 1.11, written by Peter Selinger 2001-2013
</metadata>
<g transform="translate(0.000000,16.000000) scale(0.008421,-0.008421)"
fill="#000000" stroke="none">
<path d="M199 1853 c-4 -133 4 -312 17 -376 2 -12 7 -35 10 -52 37 -208 127
-386 261 -521 74 -74 92 -85 193 -112 224 -61 367 -63 548 -6 59 19 72 31 45
41 -66 25 -319 191 -440 289 -75 61 -263 252 -330 334 -81 100 -199 269 -248
358 -22 40 -43 72 -47 72 -5 0 -8 -12 -9 -27z"/>
<path d="M210 950 c66 -127 320 -371 510 -490 30 -19 57 -37 60 -40 5 -6 43
-29 120 -73 66 -37 305 -155 370 -182 36 -15 79 -33 95 -40 37 -17 290 -110
325 -120 22 -6 21 -3 -16 36 -221 235 -362 488 -378 678 -2 29 -6 55 -9 57 -2
2 -17 -3 -33 -11 -88 -43 -283 -63 -419 -42 -116 18 -260 62 -380 117 -91 41
-200 96 -229 115 l-29 19 13 -24z"/>
</g>
</svg>
